<mxfile host="Electron" agent="Mozilla/5.0 (Windows NT 10.0; Win64; x64) AppleWebKit/537.36 (KHTML, like Gecko) draw.io/27.0.9 Chrome/134.0.6998.205 Electron/35.4.0 Safari/537.36" version="27.0.9">
  <diagram name="Page-1" id="QojAjGDVrNQnaueY_GYA">
    <mxGraphModel dx="1971" dy="1089" grid="1" gridSize="10" guides="1" tooltips="1" connect="1" arrows="1" fold="1" page="1" pageScale="1" pageWidth="850" pageHeight="1100" math="0" shadow="0">
      <root>
        <mxCell id="0" />
        <mxCell id="1" parent="0" />
        <mxCell id="5zu52MnPHoep2scWqwnp-29" value="Employee" style="whiteSpace=wrap;html=1;align=center;" vertex="1" parent="1">
          <mxGeometry x="1269" y="834" width="100" height="40" as="geometry" />
        </mxCell>
        <mxCell id="5zu52MnPHoep2scWqwnp-30" value="Emp_Id" style="ellipse;whiteSpace=wrap;html=1;align=center;fontStyle=4;" vertex="1" parent="1">
          <mxGeometry x="1424" y="894" width="100" height="40" as="geometry" />
        </mxCell>
        <mxCell id="5zu52MnPHoep2scWqwnp-31" value="" style="endArrow=none;html=1;rounded=0;entryX=1;entryY=1;entryDx=0;entryDy=0;exitX=0;exitY=0;exitDx=0;exitDy=0;" edge="1" parent="1" source="5zu52MnPHoep2scWqwnp-30" target="5zu52MnPHoep2scWqwnp-29">
          <mxGeometry relative="1" as="geometry">
            <mxPoint x="1154" y="664" as="sourcePoint" />
            <mxPoint x="1314" y="664" as="targetPoint" />
          </mxGeometry>
        </mxCell>
        <mxCell id="5zu52MnPHoep2scWqwnp-34" value="Name" style="ellipse;whiteSpace=wrap;html=1;align=center;" vertex="1" parent="1">
          <mxGeometry x="1314" y="894" width="100" height="40" as="geometry" />
        </mxCell>
        <mxCell id="5zu52MnPHoep2scWqwnp-35" value="Fname" style="ellipse;whiteSpace=wrap;html=1;align=center;" vertex="1" parent="1">
          <mxGeometry x="1261.5" y="954" width="100" height="40" as="geometry" />
        </mxCell>
        <mxCell id="5zu52MnPHoep2scWqwnp-36" value="Lname" style="ellipse;whiteSpace=wrap;html=1;align=center;" vertex="1" parent="1">
          <mxGeometry x="1366.5" y="954" width="100" height="40" as="geometry" />
        </mxCell>
        <mxCell id="5zu52MnPHoep2scWqwnp-37" value="" style="endArrow=none;html=1;rounded=0;entryX=0;entryY=1;entryDx=0;entryDy=0;exitX=0.5;exitY=0;exitDx=0;exitDy=0;" edge="1" parent="1" source="5zu52MnPHoep2scWqwnp-35" target="5zu52MnPHoep2scWqwnp-34">
          <mxGeometry relative="1" as="geometry">
            <mxPoint x="984" y="944" as="sourcePoint" />
            <mxPoint x="1144" y="944" as="targetPoint" />
          </mxGeometry>
        </mxCell>
        <mxCell id="5zu52MnPHoep2scWqwnp-38" value="" style="endArrow=none;html=1;rounded=0;entryX=1;entryY=1;entryDx=0;entryDy=0;exitX=0.5;exitY=0;exitDx=0;exitDy=0;" edge="1" parent="1" source="5zu52MnPHoep2scWqwnp-36" target="5zu52MnPHoep2scWqwnp-34">
          <mxGeometry relative="1" as="geometry">
            <mxPoint x="1024" y="1024" as="sourcePoint" />
            <mxPoint x="1184" y="1024" as="targetPoint" />
          </mxGeometry>
        </mxCell>
        <mxCell id="5zu52MnPHoep2scWqwnp-39" value="" style="endArrow=none;html=1;rounded=0;exitX=0.75;exitY=1;exitDx=0;exitDy=0;entryX=0.5;entryY=0;entryDx=0;entryDy=0;" edge="1" parent="1" source="5zu52MnPHoep2scWqwnp-29" target="5zu52MnPHoep2scWqwnp-34">
          <mxGeometry relative="1" as="geometry">
            <mxPoint x="1004" y="1064" as="sourcePoint" />
            <mxPoint x="1164" y="1064" as="targetPoint" />
          </mxGeometry>
        </mxCell>
        <mxCell id="5zu52MnPHoep2scWqwnp-40" value="Email" style="ellipse;whiteSpace=wrap;html=1;align=center;" vertex="1" parent="1">
          <mxGeometry x="1094" y="774" width="100" height="40" as="geometry" />
        </mxCell>
        <mxCell id="5zu52MnPHoep2scWqwnp-41" value="Salary" style="ellipse;whiteSpace=wrap;html=1;align=center;" vertex="1" parent="1">
          <mxGeometry x="1094" y="894" width="100" height="40" as="geometry" />
        </mxCell>
        <mxCell id="5zu52MnPHoep2scWqwnp-42" value="DateOfBirth" style="ellipse;whiteSpace=wrap;html=1;align=center;" vertex="1" parent="1">
          <mxGeometry x="1204" y="894" width="100" height="40" as="geometry" />
        </mxCell>
        <mxCell id="5zu52MnPHoep2scWqwnp-44" value="Bouns" style="ellipse;whiteSpace=wrap;html=1;align=center;" vertex="1" parent="1">
          <mxGeometry x="1204" y="774" width="100" height="40" as="geometry" />
        </mxCell>
        <mxCell id="5zu52MnPHoep2scWqwnp-46" value="Address" style="ellipse;whiteSpace=wrap;html=1;align=center;" vertex="1" parent="1">
          <mxGeometry x="1374" y="774" width="100" height="40" as="geometry" />
        </mxCell>
        <mxCell id="5zu52MnPHoep2scWqwnp-47" value="Phone Number" style="ellipse;whiteSpace=wrap;html=1;align=center;" vertex="1" parent="1">
          <mxGeometry x="1484" y="774" width="100" height="40" as="geometry" />
        </mxCell>
        <mxCell id="5zu52MnPHoep2scWqwnp-48" value="" style="endArrow=none;html=1;rounded=0;entryX=0.5;entryY=0;entryDx=0;entryDy=0;exitX=0.25;exitY=1;exitDx=0;exitDy=0;" edge="1" parent="1" source="5zu52MnPHoep2scWqwnp-29" target="5zu52MnPHoep2scWqwnp-42">
          <mxGeometry relative="1" as="geometry">
            <mxPoint x="1164" y="1050" as="sourcePoint" />
            <mxPoint x="1094" y="1024" as="targetPoint" />
          </mxGeometry>
        </mxCell>
        <mxCell id="5zu52MnPHoep2scWqwnp-50" value="" style="endArrow=none;html=1;rounded=0;entryX=1;entryY=0;entryDx=0;entryDy=0;exitX=0;exitY=1;exitDx=0;exitDy=0;" edge="1" parent="1" source="5zu52MnPHoep2scWqwnp-29" target="5zu52MnPHoep2scWqwnp-41">
          <mxGeometry relative="1" as="geometry">
            <mxPoint x="1171" y="1268" as="sourcePoint" />
            <mxPoint x="1144" y="1104" as="targetPoint" />
          </mxGeometry>
        </mxCell>
        <mxCell id="5zu52MnPHoep2scWqwnp-51" value="" style="endArrow=none;html=1;rounded=0;entryX=1;entryY=1;entryDx=0;entryDy=0;exitX=0;exitY=0;exitDx=0;exitDy=0;" edge="1" parent="1" source="5zu52MnPHoep2scWqwnp-29" target="5zu52MnPHoep2scWqwnp-40">
          <mxGeometry relative="1" as="geometry">
            <mxPoint x="1081" y="1228" as="sourcePoint" />
            <mxPoint x="1054" y="1064" as="targetPoint" />
          </mxGeometry>
        </mxCell>
        <mxCell id="5zu52MnPHoep2scWqwnp-52" value="" style="endArrow=none;html=1;rounded=0;entryX=0;entryY=1;entryDx=0;entryDy=0;exitX=1;exitY=0;exitDx=0;exitDy=0;" edge="1" parent="1" source="5zu52MnPHoep2scWqwnp-29" target="5zu52MnPHoep2scWqwnp-47">
          <mxGeometry relative="1" as="geometry">
            <mxPoint x="1201" y="1268" as="sourcePoint" />
            <mxPoint x="1174" y="1104" as="targetPoint" />
          </mxGeometry>
        </mxCell>
        <mxCell id="5zu52MnPHoep2scWqwnp-53" value="" style="endArrow=none;html=1;rounded=0;entryX=1;entryY=1;entryDx=0;entryDy=0;exitX=0.25;exitY=0;exitDx=0;exitDy=0;" edge="1" parent="1" source="5zu52MnPHoep2scWqwnp-29" target="5zu52MnPHoep2scWqwnp-44">
          <mxGeometry relative="1" as="geometry">
            <mxPoint x="1141" y="1288" as="sourcePoint" />
            <mxPoint x="1114" y="1124" as="targetPoint" />
          </mxGeometry>
        </mxCell>
        <mxCell id="5zu52MnPHoep2scWqwnp-54" value="" style="endArrow=none;html=1;rounded=0;entryX=0;entryY=1;entryDx=0;entryDy=0;exitX=0.75;exitY=0;exitDx=0;exitDy=0;" edge="1" parent="1" source="5zu52MnPHoep2scWqwnp-29" target="5zu52MnPHoep2scWqwnp-46">
          <mxGeometry relative="1" as="geometry">
            <mxPoint x="1261" y="1248" as="sourcePoint" />
            <mxPoint x="1234" y="1084" as="targetPoint" />
          </mxGeometry>
        </mxCell>
        <mxCell id="5zu52MnPHoep2scWqwnp-55" value="user" style="whiteSpace=wrap;html=1;align=center;" vertex="1" parent="1">
          <mxGeometry x="546" y="394" width="100" height="40" as="geometry" />
        </mxCell>
        <mxCell id="5zu52MnPHoep2scWqwnp-56" value="SSN" style="ellipse;whiteSpace=wrap;html=1;align=center;fontStyle=4;" vertex="1" parent="1">
          <mxGeometry x="514" y="454" width="100" height="40" as="geometry" />
        </mxCell>
        <mxCell id="5zu52MnPHoep2scWqwnp-58" value="Name" style="ellipse;whiteSpace=wrap;html=1;align=center;" vertex="1" parent="1">
          <mxGeometry x="414" y="454" width="100" height="40" as="geometry" />
        </mxCell>
        <mxCell id="5zu52MnPHoep2scWqwnp-66" value="floor" style="whiteSpace=wrap;html=1;align=center;" vertex="1" parent="1">
          <mxGeometry x="1571" y="384" width="100" height="40" as="geometry" />
        </mxCell>
        <mxCell id="5zu52MnPHoep2scWqwnp-67" value="floorNumber" style="ellipse;whiteSpace=wrap;html=1;align=center;fontStyle=4;" vertex="1" parent="1">
          <mxGeometry x="1636" y="454" width="100" height="40" as="geometry" />
        </mxCell>
        <mxCell id="5zu52MnPHoep2scWqwnp-68" value="" style="endArrow=none;html=1;rounded=0;entryX=0.5;entryY=1;entryDx=0;entryDy=0;exitX=0.5;exitY=0;exitDx=0;exitDy=0;" edge="1" parent="1" source="5zu52MnPHoep2scWqwnp-67" target="5zu52MnPHoep2scWqwnp-66">
          <mxGeometry relative="1" as="geometry">
            <mxPoint x="1456" y="224" as="sourcePoint" />
            <mxPoint x="1616" y="224" as="targetPoint" />
          </mxGeometry>
        </mxCell>
        <mxCell id="5zu52MnPHoep2scWqwnp-69" value="NumberOfBlocks" style="ellipse;whiteSpace=wrap;html=1;align=center;" vertex="1" parent="1">
          <mxGeometry x="1534" y="454" width="100" height="40" as="geometry" />
        </mxCell>
        <mxCell id="5zu52MnPHoep2scWqwnp-70" value="" style="endArrow=none;html=1;rounded=0;exitX=0.5;exitY=1;exitDx=0;exitDy=0;entryX=0.5;entryY=0;entryDx=0;entryDy=0;" edge="1" parent="1" source="5zu52MnPHoep2scWqwnp-66" target="5zu52MnPHoep2scWqwnp-69">
          <mxGeometry relative="1" as="geometry">
            <mxPoint x="1306" y="624" as="sourcePoint" />
            <mxPoint x="1466" y="624" as="targetPoint" />
          </mxGeometry>
        </mxCell>
        <mxCell id="5zu52MnPHoep2scWqwnp-72" value="Email" style="ellipse;whiteSpace=wrap;html=1;align=center;" vertex="1" parent="1">
          <mxGeometry x="614" y="454" width="100" height="40" as="geometry" />
        </mxCell>
        <mxCell id="5zu52MnPHoep2scWqwnp-73" value="Phones" style="ellipse;shape=doubleEllipse;margin=3;whiteSpace=wrap;html=1;align=center;" vertex="1" parent="1">
          <mxGeometry x="714" y="454" width="100" height="40" as="geometry" />
        </mxCell>
        <mxCell id="5zu52MnPHoep2scWqwnp-74" value="" style="endArrow=none;html=1;rounded=0;exitX=0.75;exitY=1;exitDx=0;exitDy=0;entryX=0.5;entryY=0;entryDx=0;entryDy=0;" edge="1" parent="1" source="5zu52MnPHoep2scWqwnp-55" target="5zu52MnPHoep2scWqwnp-72">
          <mxGeometry relative="1" as="geometry">
            <mxPoint x="491" y="364" as="sourcePoint" />
            <mxPoint x="436" y="394" as="targetPoint" />
          </mxGeometry>
        </mxCell>
        <mxCell id="5zu52MnPHoep2scWqwnp-75" value="" style="endArrow=none;html=1;rounded=0;exitX=0.25;exitY=1;exitDx=0;exitDy=0;entryX=0.5;entryY=0;entryDx=0;entryDy=0;" edge="1" parent="1" source="5zu52MnPHoep2scWqwnp-55" target="5zu52MnPHoep2scWqwnp-56">
          <mxGeometry relative="1" as="geometry">
            <mxPoint x="531" y="389" as="sourcePoint" />
            <mxPoint x="476" y="419" as="targetPoint" />
          </mxGeometry>
        </mxCell>
        <mxCell id="5zu52MnPHoep2scWqwnp-76" value="" style="endArrow=none;html=1;rounded=0;exitX=0;exitY=1;exitDx=0;exitDy=0;entryX=0.5;entryY=0;entryDx=0;entryDy=0;" edge="1" parent="1" source="5zu52MnPHoep2scWqwnp-55" target="5zu52MnPHoep2scWqwnp-58">
          <mxGeometry relative="1" as="geometry">
            <mxPoint x="486" y="404" as="sourcePoint" />
            <mxPoint x="431" y="434" as="targetPoint" />
          </mxGeometry>
        </mxCell>
        <mxCell id="5zu52MnPHoep2scWqwnp-77" value="" style="endArrow=none;html=1;rounded=0;exitX=1;exitY=1;exitDx=0;exitDy=0;entryX=0;entryY=0;entryDx=0;entryDy=0;" edge="1" parent="1" source="5zu52MnPHoep2scWqwnp-55" target="5zu52MnPHoep2scWqwnp-73">
          <mxGeometry relative="1" as="geometry">
            <mxPoint x="771" y="354" as="sourcePoint" />
            <mxPoint x="716" y="384" as="targetPoint" />
          </mxGeometry>
        </mxCell>
        <mxCell id="5zu52MnPHoep2scWqwnp-78" value="Book" style="whiteSpace=wrap;html=1;align=center;" vertex="1" parent="1">
          <mxGeometry x="1341" y="384" width="100" height="40" as="geometry" />
        </mxCell>
        <mxCell id="5zu52MnPHoep2scWqwnp-79" value="id" style="ellipse;whiteSpace=wrap;html=1;align=center;fontStyle=4;" vertex="1" parent="1">
          <mxGeometry x="1384" y="454" width="100" height="40" as="geometry" />
        </mxCell>
        <mxCell id="5zu52MnPHoep2scWqwnp-80" value="" style="endArrow=none;html=1;rounded=0;entryX=0.5;entryY=1;entryDx=0;entryDy=0;exitX=0.5;exitY=0;exitDx=0;exitDy=0;" edge="1" parent="1" source="5zu52MnPHoep2scWqwnp-79" target="5zu52MnPHoep2scWqwnp-78">
          <mxGeometry relative="1" as="geometry">
            <mxPoint x="1226" y="224" as="sourcePoint" />
            <mxPoint x="1386" y="224" as="targetPoint" />
          </mxGeometry>
        </mxCell>
        <mxCell id="5zu52MnPHoep2scWqwnp-81" value="Title" style="ellipse;whiteSpace=wrap;html=1;align=center;" vertex="1" parent="1">
          <mxGeometry x="1284" y="454" width="100" height="40" as="geometry" />
        </mxCell>
        <mxCell id="5zu52MnPHoep2scWqwnp-82" value="" style="endArrow=none;html=1;rounded=0;exitX=0.5;exitY=1;exitDx=0;exitDy=0;entryX=0.5;entryY=0;entryDx=0;entryDy=0;" edge="1" parent="1" source="5zu52MnPHoep2scWqwnp-78" target="5zu52MnPHoep2scWqwnp-81">
          <mxGeometry relative="1" as="geometry">
            <mxPoint x="1076" y="624" as="sourcePoint" />
            <mxPoint x="1236" y="624" as="targetPoint" />
          </mxGeometry>
        </mxCell>
        <mxCell id="5zu52MnPHoep2scWqwnp-83" value="Auther" style="whiteSpace=wrap;html=1;align=center;" vertex="1" parent="1">
          <mxGeometry x="1111" y="384" width="100" height="40" as="geometry" />
        </mxCell>
        <mxCell id="5zu52MnPHoep2scWqwnp-84" value="id" style="ellipse;whiteSpace=wrap;html=1;align=center;fontStyle=4;" vertex="1" parent="1">
          <mxGeometry x="1176" y="454" width="100" height="40" as="geometry" />
        </mxCell>
        <mxCell id="5zu52MnPHoep2scWqwnp-85" value="" style="endArrow=none;html=1;rounded=0;entryX=0.5;entryY=1;entryDx=0;entryDy=0;exitX=0.5;exitY=0;exitDx=0;exitDy=0;" edge="1" parent="1" source="5zu52MnPHoep2scWqwnp-84" target="5zu52MnPHoep2scWqwnp-83">
          <mxGeometry relative="1" as="geometry">
            <mxPoint x="996" y="224" as="sourcePoint" />
            <mxPoint x="1156" y="224" as="targetPoint" />
          </mxGeometry>
        </mxCell>
        <mxCell id="5zu52MnPHoep2scWqwnp-86" value="name" style="ellipse;whiteSpace=wrap;html=1;align=center;" vertex="1" parent="1">
          <mxGeometry x="1056" y="454" width="100" height="40" as="geometry" />
        </mxCell>
        <mxCell id="5zu52MnPHoep2scWqwnp-87" value="" style="endArrow=none;html=1;rounded=0;exitX=0.5;exitY=1;exitDx=0;exitDy=0;entryX=0.5;entryY=0;entryDx=0;entryDy=0;" edge="1" parent="1" source="5zu52MnPHoep2scWqwnp-83" target="5zu52MnPHoep2scWqwnp-86">
          <mxGeometry relative="1" as="geometry">
            <mxPoint x="846" y="624" as="sourcePoint" />
            <mxPoint x="1006" y="624" as="targetPoint" />
          </mxGeometry>
        </mxCell>
        <mxCell id="5zu52MnPHoep2scWqwnp-88" value="Publisher" style="whiteSpace=wrap;html=1;align=center;" vertex="1" parent="1">
          <mxGeometry x="883.5" y="384" width="100" height="40" as="geometry" />
        </mxCell>
        <mxCell id="5zu52MnPHoep2scWqwnp-89" value="id" style="ellipse;whiteSpace=wrap;html=1;align=center;fontStyle=4;" vertex="1" parent="1">
          <mxGeometry x="948.5" y="454" width="100" height="40" as="geometry" />
        </mxCell>
        <mxCell id="5zu52MnPHoep2scWqwnp-90" value="" style="endArrow=none;html=1;rounded=0;entryX=0.5;entryY=1;entryDx=0;entryDy=0;exitX=0.5;exitY=0;exitDx=0;exitDy=0;" edge="1" parent="1" source="5zu52MnPHoep2scWqwnp-89" target="5zu52MnPHoep2scWqwnp-88">
          <mxGeometry relative="1" as="geometry">
            <mxPoint x="768.5" y="224" as="sourcePoint" />
            <mxPoint x="928.5" y="224" as="targetPoint" />
          </mxGeometry>
        </mxCell>
        <mxCell id="5zu52MnPHoep2scWqwnp-91" value="name" style="ellipse;whiteSpace=wrap;html=1;align=center;" vertex="1" parent="1">
          <mxGeometry x="838.5" y="454" width="100" height="40" as="geometry" />
        </mxCell>
        <mxCell id="5zu52MnPHoep2scWqwnp-92" value="" style="endArrow=none;html=1;rounded=0;exitX=0.5;exitY=1;exitDx=0;exitDy=0;entryX=0.5;entryY=0;entryDx=0;entryDy=0;" edge="1" parent="1" source="5zu52MnPHoep2scWqwnp-88" target="5zu52MnPHoep2scWqwnp-91">
          <mxGeometry relative="1" as="geometry">
            <mxPoint x="618.5" y="624" as="sourcePoint" />
            <mxPoint x="778.5" y="624" as="targetPoint" />
          </mxGeometry>
        </mxCell>
        <mxCell id="5zu52MnPHoep2scWqwnp-93" value="category" style="whiteSpace=wrap;html=1;align=center;" vertex="1" parent="1">
          <mxGeometry x="1889" y="384" width="100" height="40" as="geometry" />
        </mxCell>
        <mxCell id="5zu52MnPHoep2scWqwnp-94" value="id" style="ellipse;whiteSpace=wrap;html=1;align=center;fontStyle=4;" vertex="1" parent="1">
          <mxGeometry x="1934" y="454" width="100" height="40" as="geometry" />
        </mxCell>
        <mxCell id="5zu52MnPHoep2scWqwnp-95" value="" style="endArrow=none;html=1;rounded=0;entryX=0.5;entryY=1;entryDx=0;entryDy=0;exitX=0.5;exitY=0;exitDx=0;exitDy=0;" edge="1" parent="1" source="5zu52MnPHoep2scWqwnp-94" target="5zu52MnPHoep2scWqwnp-93">
          <mxGeometry relative="1" as="geometry">
            <mxPoint x="1774" y="224" as="sourcePoint" />
            <mxPoint x="1934" y="224" as="targetPoint" />
          </mxGeometry>
        </mxCell>
        <mxCell id="5zu52MnPHoep2scWqwnp-96" value="cat_name" style="ellipse;whiteSpace=wrap;html=1;align=center;" vertex="1" parent="1">
          <mxGeometry x="1834" y="454" width="100" height="40" as="geometry" />
        </mxCell>
        <mxCell id="5zu52MnPHoep2scWqwnp-97" value="" style="endArrow=none;html=1;rounded=0;exitX=0.5;exitY=1;exitDx=0;exitDy=0;entryX=0.5;entryY=0;entryDx=0;entryDy=0;" edge="1" parent="1" source="5zu52MnPHoep2scWqwnp-93" target="5zu52MnPHoep2scWqwnp-96">
          <mxGeometry relative="1" as="geometry">
            <mxPoint x="1624" y="624" as="sourcePoint" />
            <mxPoint x="1784" y="624" as="targetPoint" />
          </mxGeometry>
        </mxCell>
        <mxCell id="5zu52MnPHoep2scWqwnp-98" value="shelf" style="whiteSpace=wrap;html=1;align=center;" vertex="1" parent="1">
          <mxGeometry x="2061" y="384" width="100" height="40" as="geometry" />
        </mxCell>
        <mxCell id="5zu52MnPHoep2scWqwnp-99" value="code" style="ellipse;whiteSpace=wrap;html=1;align=center;fontStyle=4;" vertex="1" parent="1">
          <mxGeometry x="2061" y="454" width="100" height="40" as="geometry" />
        </mxCell>
        <mxCell id="5zu52MnPHoep2scWqwnp-100" value="" style="endArrow=none;html=1;rounded=0;entryX=0.5;entryY=1;entryDx=0;entryDy=0;exitX=0.5;exitY=0;exitDx=0;exitDy=0;" edge="1" parent="1" source="5zu52MnPHoep2scWqwnp-99" target="5zu52MnPHoep2scWqwnp-98">
          <mxGeometry relative="1" as="geometry">
            <mxPoint x="1946" y="224" as="sourcePoint" />
            <mxPoint x="2106" y="224" as="targetPoint" />
          </mxGeometry>
        </mxCell>
        <mxCell id="5zu52MnPHoep2scWqwnp-104" value="supervisor" style="shape=rhombus;perimeter=rhombusPerimeter;whiteSpace=wrap;html=1;align=center;" vertex="1" parent="1">
          <mxGeometry x="1571" y="824" width="120" height="60" as="geometry" />
        </mxCell>
        <mxCell id="5zu52MnPHoep2scWqwnp-105" value="" style="shape=link;html=1;rounded=0;exitX=0.5;exitY=1;exitDx=0;exitDy=0;entryX=1;entryY=0.5;entryDx=0;entryDy=0;" edge="1" parent="1" source="5zu52MnPHoep2scWqwnp-104" target="5zu52MnPHoep2scWqwnp-29">
          <mxGeometry relative="1" as="geometry">
            <mxPoint x="1632.9999999999998" y="954" as="sourcePoint" />
            <mxPoint x="1885" y="994" as="targetPoint" />
          </mxGeometry>
        </mxCell>
        <mxCell id="5zu52MnPHoep2scWqwnp-106" value="1" style="resizable=0;html=1;whiteSpace=wrap;align=right;verticalAlign=bottom;" connectable="0" vertex="1" parent="5zu52MnPHoep2scWqwnp-105">
          <mxGeometry x="1" relative="1" as="geometry" />
        </mxCell>
        <mxCell id="5zu52MnPHoep2scWqwnp-107" value="" style="shape=link;html=1;rounded=0;entryX=1;entryY=0.5;entryDx=0;entryDy=0;exitX=0.5;exitY=0;exitDx=0;exitDy=0;" edge="1" parent="1" source="5zu52MnPHoep2scWqwnp-104" target="5zu52MnPHoep2scWqwnp-29">
          <mxGeometry relative="1" as="geometry">
            <mxPoint x="1524" y="944" as="sourcePoint" />
            <mxPoint x="1684" y="944" as="targetPoint" />
          </mxGeometry>
        </mxCell>
        <mxCell id="5zu52MnPHoep2scWqwnp-108" value="N" style="resizable=0;html=1;whiteSpace=wrap;align=right;verticalAlign=bottom;" connectable="0" vertex="1" parent="5zu52MnPHoep2scWqwnp-107">
          <mxGeometry x="1" relative="1" as="geometry" />
        </mxCell>
        <mxCell id="5zu52MnPHoep2scWqwnp-109" value="manage" style="shape=rhombus;perimeter=rhombusPerimeter;whiteSpace=wrap;html=1;align=center;" vertex="1" parent="1">
          <mxGeometry x="1464" y="614" width="120" height="60" as="geometry" />
        </mxCell>
        <mxCell id="5zu52MnPHoep2scWqwnp-110" value="" style="shape=link;html=1;rounded=0;exitX=0.5;exitY=0;exitDx=0;exitDy=0;entryX=0;entryY=0.5;entryDx=0;entryDy=0;" edge="1" parent="1" source="5zu52MnPHoep2scWqwnp-109" target="5zu52MnPHoep2scWqwnp-66">
          <mxGeometry relative="1" as="geometry">
            <mxPoint x="1294" y="624" as="sourcePoint" />
            <mxPoint x="1524" y="494" as="targetPoint" />
            <Array as="points">
              <mxPoint x="1524" y="404" />
            </Array>
          </mxGeometry>
        </mxCell>
        <mxCell id="5zu52MnPHoep2scWqwnp-111" value="1" style="resizable=0;html=1;whiteSpace=wrap;align=right;verticalAlign=bottom;" connectable="0" vertex="1" parent="5zu52MnPHoep2scWqwnp-110">
          <mxGeometry x="1" relative="1" as="geometry" />
        </mxCell>
        <mxCell id="5zu52MnPHoep2scWqwnp-112" value="" style="shape=link;html=1;rounded=0;exitX=0.5;exitY=1;exitDx=0;exitDy=0;entryX=0.5;entryY=0;entryDx=0;entryDy=0;" edge="1" parent="1" source="5zu52MnPHoep2scWqwnp-109" target="5zu52MnPHoep2scWqwnp-29">
          <mxGeometry relative="1" as="geometry">
            <mxPoint x="1584" y="714" as="sourcePoint" />
            <mxPoint x="1314" y="744" as="targetPoint" />
            <Array as="points">
              <mxPoint x="1319" y="674" />
              <mxPoint x="1319" y="754" />
            </Array>
          </mxGeometry>
        </mxCell>
        <mxCell id="5zu52MnPHoep2scWqwnp-113" value="1" style="resizable=0;html=1;whiteSpace=wrap;align=right;verticalAlign=bottom;" connectable="0" vertex="1" parent="5zu52MnPHoep2scWqwnp-112">
          <mxGeometry x="1" relative="1" as="geometry" />
        </mxCell>
        <mxCell id="5zu52MnPHoep2scWqwnp-114" value="" style="shape=link;html=1;rounded=0;entryX=1;entryY=0.5;entryDx=0;entryDy=0;exitX=1;exitY=0.5;exitDx=0;exitDy=0;" edge="1" parent="1" source="5zu52MnPHoep2scWqwnp-116" target="5zu52MnPHoep2scWqwnp-66">
          <mxGeometry relative="1" as="geometry">
            <mxPoint x="1744" y="544" as="sourcePoint" />
            <mxPoint x="1844" y="544" as="targetPoint" />
            <Array as="points">
              <mxPoint x="1744" y="404" />
              <mxPoint x="1704" y="404" />
            </Array>
          </mxGeometry>
        </mxCell>
        <mxCell id="5zu52MnPHoep2scWqwnp-115" value="1" style="resizable=0;html=1;whiteSpace=wrap;align=right;verticalAlign=bottom;" connectable="0" vertex="1" parent="5zu52MnPHoep2scWqwnp-114">
          <mxGeometry x="1" relative="1" as="geometry" />
        </mxCell>
        <mxCell id="5zu52MnPHoep2scWqwnp-116" value="work" style="shape=rhombus;perimeter=rhombusPerimeter;whiteSpace=wrap;html=1;align=center;" vertex="1" parent="1">
          <mxGeometry x="1626" y="614" width="120" height="60" as="geometry" />
        </mxCell>
        <mxCell id="5zu52MnPHoep2scWqwnp-117" value="" style="shape=link;html=1;rounded=0;exitX=0;exitY=0.5;exitDx=0;exitDy=0;entryX=0.75;entryY=0;entryDx=0;entryDy=0;" edge="1" parent="1" source="5zu52MnPHoep2scWqwnp-116" target="5zu52MnPHoep2scWqwnp-29">
          <mxGeometry relative="1" as="geometry">
            <mxPoint x="1454" y="734" as="sourcePoint" />
            <mxPoint x="1354" y="804" as="targetPoint" />
            <Array as="points">
              <mxPoint x="1624" y="744" />
              <mxPoint x="1344" y="744" />
            </Array>
          </mxGeometry>
        </mxCell>
        <mxCell id="5zu52MnPHoep2scWqwnp-118" value="N" style="resizable=0;html=1;whiteSpace=wrap;align=right;verticalAlign=bottom;" connectable="0" vertex="1" parent="5zu52MnPHoep2scWqwnp-117">
          <mxGeometry x="1" relative="1" as="geometry" />
        </mxCell>
        <mxCell id="5zu52MnPHoep2scWqwnp-119" value="Record" style="shape=rhombus;perimeter=rhombusPerimeter;whiteSpace=wrap;html=1;align=center;" vertex="1" parent="1">
          <mxGeometry x="828.5" y="704" width="120" height="60" as="geometry" />
        </mxCell>
        <mxCell id="5zu52MnPHoep2scWqwnp-120" value="" style="shape=link;html=1;rounded=0;exitX=1;exitY=0.5;exitDx=0;exitDy=0;entryX=0;entryY=0.5;entryDx=0;entryDy=0;" edge="1" parent="1" source="5zu52MnPHoep2scWqwnp-119" target="5zu52MnPHoep2scWqwnp-29">
          <mxGeometry relative="1" as="geometry">
            <mxPoint x="644" y="894" as="sourcePoint" />
            <mxPoint x="804" y="894" as="targetPoint" />
            <Array as="points">
              <mxPoint x="954" y="854" />
            </Array>
          </mxGeometry>
        </mxCell>
        <mxCell id="5zu52MnPHoep2scWqwnp-121" value="1" style="resizable=0;html=1;whiteSpace=wrap;align=right;verticalAlign=bottom;" connectable="0" vertex="1" parent="5zu52MnPHoep2scWqwnp-120">
          <mxGeometry x="1" relative="1" as="geometry" />
        </mxCell>
        <mxCell id="5zu52MnPHoep2scWqwnp-122" value="" style="shape=link;html=1;rounded=0;exitX=0;exitY=0.5;exitDx=0;exitDy=0;entryX=1;entryY=0.5;entryDx=0;entryDy=0;" edge="1" parent="1" source="5zu52MnPHoep2scWqwnp-119" target="5zu52MnPHoep2scWqwnp-55">
          <mxGeometry relative="1" as="geometry">
            <mxPoint x="784" y="744" as="sourcePoint" />
            <mxPoint x="734" y="384" as="targetPoint" />
            <Array as="points">
              <mxPoint x="824" y="414" />
            </Array>
          </mxGeometry>
        </mxCell>
        <mxCell id="5zu52MnPHoep2scWqwnp-123" value="N" style="resizable=0;html=1;whiteSpace=wrap;align=right;verticalAlign=bottom;" connectable="0" vertex="1" parent="5zu52MnPHoep2scWqwnp-122">
          <mxGeometry x="1" relative="1" as="geometry" />
        </mxCell>
        <mxCell id="5zu52MnPHoep2scWqwnp-124" value="Borrow" style="shape=rhombus;perimeter=rhombusPerimeter;whiteSpace=wrap;html=1;align=center;" vertex="1" parent="1">
          <mxGeometry x="983.5" y="164" width="120" height="60" as="geometry" />
        </mxCell>
        <mxCell id="5zu52MnPHoep2scWqwnp-125" value="" style="shape=link;html=1;rounded=0;exitX=0;exitY=0.5;exitDx=0;exitDy=0;entryX=0.5;entryY=0;entryDx=0;entryDy=0;" edge="1" parent="1" source="5zu52MnPHoep2scWqwnp-124" target="5zu52MnPHoep2scWqwnp-55">
          <mxGeometry relative="1" as="geometry">
            <mxPoint x="744" y="214" as="sourcePoint" />
            <mxPoint x="904" y="214" as="targetPoint" />
            <Array as="points">
              <mxPoint x="594" y="194" />
            </Array>
          </mxGeometry>
        </mxCell>
        <mxCell id="5zu52MnPHoep2scWqwnp-126" value="N" style="resizable=0;html=1;whiteSpace=wrap;align=right;verticalAlign=bottom;" connectable="0" vertex="1" parent="5zu52MnPHoep2scWqwnp-125">
          <mxGeometry x="1" relative="1" as="geometry" />
        </mxCell>
        <mxCell id="5zu52MnPHoep2scWqwnp-127" value="" style="shape=link;html=1;rounded=0;exitX=1;exitY=0.5;exitDx=0;exitDy=0;entryX=0.5;entryY=0;entryDx=0;entryDy=0;" edge="1" parent="1" source="5zu52MnPHoep2scWqwnp-124" target="5zu52MnPHoep2scWqwnp-78">
          <mxGeometry relative="1" as="geometry">
            <mxPoint x="784" y="284" as="sourcePoint" />
            <mxPoint x="944" y="284" as="targetPoint" />
            <Array as="points">
              <mxPoint x="1391" y="194" />
            </Array>
          </mxGeometry>
        </mxCell>
        <mxCell id="5zu52MnPHoep2scWqwnp-128" value="N" style="resizable=0;html=1;whiteSpace=wrap;align=right;verticalAlign=bottom;" connectable="0" vertex="1" parent="5zu52MnPHoep2scWqwnp-127">
          <mxGeometry x="1" relative="1" as="geometry" />
        </mxCell>
        <mxCell id="5zu52MnPHoep2scWqwnp-129" value="Date_Borrowed" style="ellipse;whiteSpace=wrap;html=1;align=center;" vertex="1" parent="1">
          <mxGeometry x="884" y="104" width="100" height="40" as="geometry" />
        </mxCell>
        <mxCell id="5zu52MnPHoep2scWqwnp-130" value="AmountOfMoney" style="ellipse;whiteSpace=wrap;html=1;align=center;" vertex="1" parent="1">
          <mxGeometry x="1103.5" y="104" width="100" height="40" as="geometry" />
        </mxCell>
        <mxCell id="5zu52MnPHoep2scWqwnp-131" value="Due_Date" style="ellipse;whiteSpace=wrap;html=1;align=center;" vertex="1" parent="1">
          <mxGeometry x="993.5" y="104" width="100" height="40" as="geometry" />
        </mxCell>
        <mxCell id="5zu52MnPHoep2scWqwnp-132" value="" style="endArrow=none;html=1;rounded=0;exitX=1;exitY=1;exitDx=0;exitDy=0;entryX=0;entryY=0;entryDx=0;entryDy=0;" edge="1" parent="1" source="5zu52MnPHoep2scWqwnp-129" target="5zu52MnPHoep2scWqwnp-124">
          <mxGeometry relative="1" as="geometry">
            <mxPoint x="874" y="294" as="sourcePoint" />
            <mxPoint x="1034" y="294" as="targetPoint" />
          </mxGeometry>
        </mxCell>
        <mxCell id="5zu52MnPHoep2scWqwnp-135" value="" style="endArrow=none;html=1;rounded=0;exitX=0.5;exitY=1;exitDx=0;exitDy=0;entryX=0.5;entryY=0;entryDx=0;entryDy=0;" edge="1" parent="1" source="5zu52MnPHoep2scWqwnp-131" target="5zu52MnPHoep2scWqwnp-124">
          <mxGeometry relative="1" as="geometry">
            <mxPoint x="924" y="284" as="sourcePoint" />
            <mxPoint x="1084" y="284" as="targetPoint" />
          </mxGeometry>
        </mxCell>
        <mxCell id="5zu52MnPHoep2scWqwnp-136" value="" style="endArrow=none;html=1;rounded=0;entryX=0;entryY=1;entryDx=0;entryDy=0;exitX=1;exitY=0;exitDx=0;exitDy=0;" edge="1" parent="1" source="5zu52MnPHoep2scWqwnp-124" target="5zu52MnPHoep2scWqwnp-130">
          <mxGeometry relative="1" as="geometry">
            <mxPoint x="934" y="304" as="sourcePoint" />
            <mxPoint x="1094" y="304" as="targetPoint" />
          </mxGeometry>
        </mxCell>
        <mxCell id="5zu52MnPHoep2scWqwnp-137" value="Have author" style="shape=rhombus;perimeter=rhombusPerimeter;whiteSpace=wrap;html=1;align=center;" vertex="1" parent="1">
          <mxGeometry x="1234" y="384" width="87" height="40" as="geometry" />
        </mxCell>
        <mxCell id="5zu52MnPHoep2scWqwnp-138" value="" style="endArrow=none;html=1;rounded=0;exitX=1;exitY=0.5;exitDx=0;exitDy=0;entryX=0;entryY=0.5;entryDx=0;entryDy=0;" edge="1" parent="1" source="5zu52MnPHoep2scWqwnp-137" target="5zu52MnPHoep2scWqwnp-78">
          <mxGeometry relative="1" as="geometry">
            <mxPoint x="1154" y="344" as="sourcePoint" />
            <mxPoint x="1314" y="344" as="targetPoint" />
          </mxGeometry>
        </mxCell>
        <mxCell id="5zu52MnPHoep2scWqwnp-139" value="N" style="resizable=0;html=1;whiteSpace=wrap;align=right;verticalAlign=bottom;" connectable="0" vertex="1" parent="5zu52MnPHoep2scWqwnp-138">
          <mxGeometry x="1" relative="1" as="geometry" />
        </mxCell>
        <mxCell id="5zu52MnPHoep2scWqwnp-141" value="" style="endArrow=none;html=1;rounded=0;exitX=0;exitY=0.5;exitDx=0;exitDy=0;entryX=1;entryY=0.5;entryDx=0;entryDy=0;" edge="1" parent="1" source="5zu52MnPHoep2scWqwnp-137" target="5zu52MnPHoep2scWqwnp-83">
          <mxGeometry relative="1" as="geometry">
            <mxPoint x="1224" y="434" as="sourcePoint" />
            <mxPoint x="1384" y="434" as="targetPoint" />
          </mxGeometry>
        </mxCell>
        <mxCell id="5zu52MnPHoep2scWqwnp-142" value="N" style="resizable=0;html=1;whiteSpace=wrap;align=right;verticalAlign=bottom;" connectable="0" vertex="1" parent="5zu52MnPHoep2scWqwnp-141">
          <mxGeometry x="1" relative="1" as="geometry" />
        </mxCell>
        <mxCell id="5zu52MnPHoep2scWqwnp-143" value="Have&amp;nbsp; Publisher" style="shape=rhombus;perimeter=rhombusPerimeter;whiteSpace=wrap;html=1;align=center;" vertex="1" parent="1">
          <mxGeometry x="1124" y="304" width="110" height="70" as="geometry" />
        </mxCell>
        <mxCell id="5zu52MnPHoep2scWqwnp-144" value="" style="shape=link;html=1;rounded=0;entryX=1;entryY=0.5;entryDx=0;entryDy=0;exitX=0;exitY=1;exitDx=0;exitDy=0;" edge="1" parent="1" source="5zu52MnPHoep2scWqwnp-143" target="5zu52MnPHoep2scWqwnp-88">
          <mxGeometry relative="1" as="geometry">
            <mxPoint x="904" y="324" as="sourcePoint" />
            <mxPoint x="1064" y="324" as="targetPoint" />
          </mxGeometry>
        </mxCell>
        <mxCell id="5zu52MnPHoep2scWqwnp-145" value="1" style="resizable=0;html=1;whiteSpace=wrap;align=right;verticalAlign=bottom;" connectable="0" vertex="1" parent="5zu52MnPHoep2scWqwnp-144">
          <mxGeometry x="1" relative="1" as="geometry" />
        </mxCell>
        <mxCell id="5zu52MnPHoep2scWqwnp-146" value="" style="endArrow=none;html=1;rounded=0;exitX=1;exitY=1;exitDx=0;exitDy=0;entryX=0;entryY=0;entryDx=0;entryDy=0;" edge="1" parent="1" source="5zu52MnPHoep2scWqwnp-143" target="5zu52MnPHoep2scWqwnp-78">
          <mxGeometry relative="1" as="geometry">
            <mxPoint x="934" y="314" as="sourcePoint" />
            <mxPoint x="1094" y="314" as="targetPoint" />
          </mxGeometry>
        </mxCell>
        <mxCell id="5zu52MnPHoep2scWqwnp-147" value="N" style="resizable=0;html=1;whiteSpace=wrap;align=right;verticalAlign=bottom;" connectable="0" vertex="1" parent="5zu52MnPHoep2scWqwnp-146">
          <mxGeometry x="1" relative="1" as="geometry" />
        </mxCell>
        <mxCell id="5zu52MnPHoep2scWqwnp-152" value="" style="shape=link;html=1;rounded=0;entryX=0;entryY=0;entryDx=0;entryDy=0;exitX=1;exitY=0.5;exitDx=0;exitDy=0;" edge="1" parent="1" source="5zu52MnPHoep2scWqwnp-156" target="5zu52MnPHoep2scWqwnp-93">
          <mxGeometry relative="1" as="geometry">
            <mxPoint x="1724" y="338.57" as="sourcePoint" />
            <mxPoint x="1884" y="338.57" as="targetPoint" />
            <Array as="points">
              <mxPoint x="1889" y="294" />
            </Array>
          </mxGeometry>
        </mxCell>
        <mxCell id="5zu52MnPHoep2scWqwnp-153" value="1" style="resizable=0;html=1;whiteSpace=wrap;align=right;verticalAlign=bottom;" connectable="0" vertex="1" parent="5zu52MnPHoep2scWqwnp-152">
          <mxGeometry x="1" relative="1" as="geometry" />
        </mxCell>
        <mxCell id="5zu52MnPHoep2scWqwnp-156" value="classification" style="shape=rhombus;perimeter=rhombusPerimeter;whiteSpace=wrap;html=1;align=center;" vertex="1" parent="1">
          <mxGeometry x="1577.5" y="274" width="87" height="40" as="geometry" />
        </mxCell>
        <mxCell id="5zu52MnPHoep2scWqwnp-157" value="" style="endArrow=none;html=1;rounded=0;exitX=0;exitY=0.5;exitDx=0;exitDy=0;entryX=1;entryY=0;entryDx=0;entryDy=0;" edge="1" parent="1" source="5zu52MnPHoep2scWqwnp-156" target="5zu52MnPHoep2scWqwnp-78">
          <mxGeometry relative="1" as="geometry">
            <mxPoint x="1494" y="344" as="sourcePoint" />
            <mxPoint x="1654" y="344" as="targetPoint" />
          </mxGeometry>
        </mxCell>
        <mxCell id="5zu52MnPHoep2scWqwnp-158" value="1" style="resizable=0;html=1;whiteSpace=wrap;align=right;verticalAlign=bottom;" connectable="0" vertex="1" parent="5zu52MnPHoep2scWqwnp-157">
          <mxGeometry x="1" relative="1" as="geometry" />
        </mxCell>
        <mxCell id="5zu52MnPHoep2scWqwnp-159" value="" style="shape=link;html=1;rounded=0;exitX=1;exitY=0.5;exitDx=0;exitDy=0;entryX=0.5;entryY=0;entryDx=0;entryDy=0;" edge="1" parent="1" source="5zu52MnPHoep2scWqwnp-163" target="5zu52MnPHoep2scWqwnp-98">
          <mxGeometry relative="1" as="geometry">
            <mxPoint x="1764" y="213.47000000000003" as="sourcePoint" />
            <mxPoint x="1974" y="334" as="targetPoint" />
            <Array as="points">
              <mxPoint x="2111" y="214" />
            </Array>
          </mxGeometry>
        </mxCell>
        <mxCell id="5zu52MnPHoep2scWqwnp-160" value="1" style="resizable=0;html=1;whiteSpace=wrap;align=right;verticalAlign=bottom;" connectable="0" vertex="1" parent="5zu52MnPHoep2scWqwnp-159">
          <mxGeometry x="1" relative="1" as="geometry" />
        </mxCell>
        <mxCell id="5zu52MnPHoep2scWqwnp-161" value="" style="endArrow=none;html=1;rounded=0;exitX=0;exitY=0.5;exitDx=0;exitDy=0;entryX=0.75;entryY=0;entryDx=0;entryDy=0;" edge="1" parent="1" source="5zu52MnPHoep2scWqwnp-163" target="5zu52MnPHoep2scWqwnp-78">
          <mxGeometry relative="1" as="geometry">
            <mxPoint x="1014" y="654" as="sourcePoint" />
            <mxPoint x="1174" y="654" as="targetPoint" />
          </mxGeometry>
        </mxCell>
        <mxCell id="5zu52MnPHoep2scWqwnp-162" value="N" style="resizable=0;html=1;whiteSpace=wrap;align=right;verticalAlign=bottom;" connectable="0" vertex="1" parent="5zu52MnPHoep2scWqwnp-161">
          <mxGeometry x="1" relative="1" as="geometry" />
        </mxCell>
        <mxCell id="5zu52MnPHoep2scWqwnp-163" value="assign" style="shape=rhombus;perimeter=rhombusPerimeter;whiteSpace=wrap;html=1;align=center;" vertex="1" parent="1">
          <mxGeometry x="1577.5" y="194" width="87" height="40" as="geometry" />
        </mxCell>
        <mxCell id="5zu52MnPHoep2scWqwnp-164" value="contin" style="shape=rhombus;perimeter=rhombusPerimeter;whiteSpace=wrap;html=1;align=center;" vertex="1" parent="1">
          <mxGeometry x="1879" y="534" width="120" height="60" as="geometry" />
        </mxCell>
        <mxCell id="5zu52MnPHoep2scWqwnp-165" value="" style="shape=link;html=1;rounded=0;entryX=0;entryY=0.5;entryDx=0;entryDy=0;exitX=1;exitY=0.5;exitDx=0;exitDy=0;" edge="1" parent="1" source="5zu52MnPHoep2scWqwnp-164" target="5zu52MnPHoep2scWqwnp-98">
          <mxGeometry relative="1" as="geometry">
            <mxPoint x="2044" y="624" as="sourcePoint" />
            <mxPoint x="2004" y="764" as="targetPoint" />
            <Array as="points">
              <mxPoint x="2044" y="564" />
              <mxPoint x="2044" y="404" />
            </Array>
          </mxGeometry>
        </mxCell>
        <mxCell id="5zu52MnPHoep2scWqwnp-166" value="N" style="resizable=0;html=1;whiteSpace=wrap;align=right;verticalAlign=bottom;" connectable="0" vertex="1" parent="5zu52MnPHoep2scWqwnp-165">
          <mxGeometry x="1" relative="1" as="geometry" />
        </mxCell>
        <mxCell id="5zu52MnPHoep2scWqwnp-167" value="" style="endArrow=none;html=1;rounded=0;exitX=0;exitY=0.5;exitDx=0;exitDy=0;entryX=0.5;entryY=0;entryDx=0;entryDy=0;" edge="1" parent="1" source="5zu52MnPHoep2scWqwnp-164" target="5zu52MnPHoep2scWqwnp-66">
          <mxGeometry relative="1" as="geometry">
            <mxPoint x="1814" y="734" as="sourcePoint" />
            <mxPoint x="1624" y="344" as="targetPoint" />
            <Array as="points">
              <mxPoint x="1794" y="564" />
              <mxPoint x="1794" y="344" />
              <mxPoint x="1621" y="344" />
            </Array>
          </mxGeometry>
        </mxCell>
        <mxCell id="5zu52MnPHoep2scWqwnp-168" value="1" style="resizable=0;html=1;whiteSpace=wrap;align=right;verticalAlign=bottom;" connectable="0" vertex="1" parent="5zu52MnPHoep2scWqwnp-167">
          <mxGeometry x="1" relative="1" as="geometry" />
        </mxCell>
      </root>
    </mxGraphModel>
  </diagram>
</mxfile>
